<svg width="52" height="52" viewBox="0 0 52 52" fill="none" xmlns="http://www.w3.org/2000/svg">
<circle cx="26" cy="26" r="26" fill="#464140"/>
<circle cx="26" cy="26" r="25" stroke="white" stroke-opacity="0.75" stroke-width="2"/>
<mask id="path-3-inside-1_31_26" fill="white">
<path d="M28.0553 40.9466V27.6281H32.5485L33.2163 22.4135H28.0553V19.0919C28.0553 17.5872 28.4746 16.5569 30.6342 16.5569H33.3707V11.9078C32.0392 11.7651 30.7009 11.6962 29.3618 11.7014C25.3903 11.7014 22.6636 14.1259 22.6636 18.5768V22.4037H18.1997V27.6183H22.6733V40.9466H28.0553Z"/>
</mask>
<path d="M28.0553 40.9466V27.6281H32.5485L33.2163 22.4135H28.0553V19.0919C28.0553 17.5872 28.4746 16.5569 30.6342 16.5569H33.3707V11.9078C32.0392 11.7651 30.7009 11.6962 29.3618 11.7014C25.3903 11.7014 22.6636 14.1259 22.6636 18.5768V22.4037H18.1997V27.6183H22.6733V40.9466H28.0553Z" fill="white"/>
<path d="M28.0553 40.9466V41.9466H29.0553V40.9466H28.0553ZM28.0553 27.6281V26.6281H27.0553V27.6281H28.0553ZM32.5485 27.6281V28.6281H33.4285L33.5404 27.7551L32.5485 27.6281ZM33.2163 22.4135L34.2082 22.5405L34.3526 21.4135H33.2163V22.4135ZM28.0553 22.4135H27.0553V23.4135H28.0553V22.4135ZM33.3707 16.5569V17.5569H34.3707V16.5569H33.3707ZM33.3707 11.9078H34.3707V11.0093L33.4773 10.9135L33.3707 11.9078ZM29.3618 11.7014V12.7015L29.3657 12.7014L29.3618 11.7014ZM22.6636 22.4037V23.4037H23.6636V22.4037H22.6636ZM18.1997 22.4037V21.4037H17.1997V22.4037H18.1997ZM18.1997 27.6183H17.1997V28.6183H18.1997V27.6183ZM22.6733 27.6183H23.6733V26.6183H22.6733V27.6183ZM22.6733 40.9466H21.6733V41.9466H22.6733V40.9466ZM29.0553 40.9466V27.6281H27.0553V40.9466H29.0553ZM28.0553 28.6281H32.5485V26.6281H28.0553V28.6281ZM33.5404 27.7551L34.2082 22.5405L32.2244 22.2864L31.5566 27.501L33.5404 27.7551ZM33.2163 21.4135H28.0553V23.4135H33.2163V21.4135ZM29.0553 22.4135V19.0919H27.0553V22.4135H29.0553ZM29.0553 19.0919C29.0553 18.383 29.1665 18.0629 29.3003 17.9038C29.4014 17.7835 29.6888 17.5569 30.6342 17.5569V15.5569C29.42 15.5569 28.4179 15.8455 27.7696 16.6166C27.1538 17.3488 27.0553 18.2961 27.0553 19.0919H29.0553ZM30.6342 17.5569H33.3707V15.5569H30.6342V17.5569ZM34.3707 16.5569V11.9078H32.3707V16.5569H34.3707ZM33.4773 10.9135C32.1091 10.7669 30.7339 10.6961 29.3579 10.7015L29.3657 12.7014C30.6679 12.6964 31.9694 12.7634 33.2641 12.9021L33.4773 10.9135ZM29.3618 10.7014C27.1732 10.7014 25.2251 11.3728 23.821 12.7582C22.4137 14.1469 21.6636 16.1438 21.6636 18.5768H23.6636C23.6636 16.559 24.2769 15.1182 25.2258 14.1819C26.178 13.2423 27.579 12.7014 29.3618 12.7014V10.7014ZM21.6636 18.5768V22.4037H23.6636V18.5768H21.6636ZM22.6636 21.4037H18.1997V23.4037H22.6636V21.4037ZM17.1997 22.4037V27.6183H19.1997V22.4037H17.1997ZM18.1997 28.6183H22.6733V26.6183H18.1997V28.6183ZM21.6733 27.6183V40.9466H23.6733V27.6183H21.6733ZM22.6733 41.9466H28.0553V39.9466H22.6733V41.9466Z" fill="white" fill-opacity="0.75" mask="url(#path-3-inside-1_31_26)"/>
</svg>
