<svg width="52" height="52" viewBox="0 0 52 52" fill="none" xmlns="http://www.w3.org/2000/svg">
<circle cx="26" cy="26" r="26" fill="#464140"/>
<circle cx="26" cy="26" r="25" stroke="white" stroke-opacity="0.75" stroke-width="2"/>
<path fill-rule="evenodd" clip-rule="evenodd" d="M20.1047 11.7879C21.6296 11.7177 22.1158 11.7021 26.0002 11.7021C29.8846 11.7021 30.3708 11.719 31.8944 11.7879C33.418 11.8568 34.458 12.0999 35.368 12.4522C36.3209 12.8123 37.1854 13.3752 37.9004 14.1032C38.6284 14.8169 39.19 15.6802 39.5488 16.6344C39.9024 17.5444 40.1442 18.5844 40.2144 20.1054C40.2846 21.6329 40.3002 22.1191 40.3002 26.0022C40.3002 29.8866 40.2833 30.3728 40.2144 31.8977C40.1455 33.4187 39.9024 34.4587 39.5488 35.3687C39.19 36.323 38.6275 37.1876 37.9004 37.9024C37.1854 38.6304 36.3209 39.192 35.368 39.5508C34.458 39.9044 33.418 40.1462 31.897 40.2164C30.3708 40.2866 29.8846 40.3022 26.0002 40.3022C22.1158 40.3022 21.6296 40.2853 20.1047 40.2164C18.5837 40.1475 17.5437 39.9044 16.6337 39.5508C15.6794 39.1919 14.8148 38.6294 14.1 37.9024C13.3725 37.1882 12.8095 36.324 12.4503 35.37C12.098 34.46 11.8562 33.42 11.786 31.899C11.7158 30.3715 11.7002 29.8853 11.7002 26.0022C11.7002 22.1178 11.7171 21.6316 11.786 20.108C11.8549 18.5844 12.098 17.5444 12.4503 16.6344C12.81 15.6803 13.3735 14.8161 14.1013 14.1019C14.815 13.3746 15.6788 12.8116 16.6324 12.4522C17.5424 12.0999 18.5824 11.8581 20.1034 11.7879H20.1047ZM31.7787 14.3619C30.2707 14.293 29.8183 14.2787 26.0002 14.2787C22.1821 14.2787 21.7297 14.293 20.2217 14.3619C18.8268 14.4256 18.0702 14.6583 17.5658 14.8547C16.8989 15.1147 16.4218 15.4228 15.9213 15.9233C15.4469 16.3848 15.0817 16.9467 14.8527 17.5678C14.6564 18.0722 14.4237 18.8288 14.36 20.2237C14.2911 21.7317 14.2768 22.1841 14.2768 26.0022C14.2768 29.8203 14.2911 30.2727 14.36 31.7807C14.4237 33.1756 14.6564 33.9322 14.8527 34.4366C15.0815 35.0567 15.4468 35.6196 15.9213 36.0811C16.3828 36.5556 16.9457 36.9209 17.5658 37.1497C18.0702 37.346 18.8268 37.5787 20.2217 37.6424C21.7297 37.7113 22.1808 37.7256 26.0002 37.7256C29.8196 37.7256 30.2707 37.7113 31.7787 37.6424C33.1736 37.5787 33.9302 37.346 34.4346 37.1497C35.1015 36.8897 35.5786 36.5816 36.0791 36.0811C36.5536 35.6196 36.9189 35.0567 37.1477 34.4366C37.344 33.9322 37.5767 33.1756 37.6404 31.7807C37.7093 30.2727 37.7236 29.8203 37.7236 26.0022C37.7236 22.1841 37.7093 21.7317 37.6404 20.2237C37.5767 18.8288 37.344 18.0722 37.1477 17.5678C36.8877 16.9009 36.5796 16.4238 36.0791 15.9233C35.6175 15.4488 35.0556 15.0837 34.4346 14.8547C33.9302 14.6583 33.1736 14.4256 31.7787 14.3619ZM24.1737 30.4105C25.1938 30.8351 26.3296 30.8924 27.3872 30.5726C28.4448 30.2528 29.3586 29.5757 29.9725 28.6571C30.5864 27.7384 30.8623 26.6351 30.7531 25.5356C30.6439 24.4361 30.1563 23.4086 29.3737 22.6287C28.8748 22.1301 28.2716 21.7483 27.6074 21.5108C26.9433 21.2734 26.2348 21.1861 25.5328 21.2554C24.8309 21.3246 24.1531 21.5486 23.5481 21.9112C22.9432 22.2739 22.4262 22.7661 22.0343 23.3526C21.6424 23.939 21.3854 24.605 21.2819 25.3027C21.1783 26.0004 21.2307 26.7123 21.4353 27.3873C21.6399 28.0623 21.9916 28.6835 22.4651 29.2063C22.9386 29.729 23.5222 30.1403 24.1737 30.4105ZM20.8028 20.8048C21.4853 20.1222 22.2956 19.5808 23.1874 19.2114C24.0792 18.842 25.035 18.6519 26.0002 18.6519C26.9654 18.6519 27.9212 18.842 28.813 19.2114C29.7048 19.5808 30.5151 20.1222 31.1976 20.8048C31.8801 21.4873 32.4216 22.2976 32.7909 23.1893C33.1603 24.0811 33.3504 25.0369 33.3504 26.0022C33.3504 26.9674 33.1603 27.9232 32.7909 28.815C32.4216 29.7067 31.8801 30.517 31.1976 31.1996C29.8192 32.578 27.9496 33.3524 26.0002 33.3524C24.0508 33.3524 22.1812 32.578 20.8028 31.1996C19.4244 29.8211 18.65 27.9516 18.65 26.0022C18.65 24.0528 19.4244 22.1832 20.8028 20.8048ZM34.9806 19.7466C35.1497 19.587 35.2851 19.3951 35.3788 19.1823C35.4725 18.9695 35.5225 18.7401 35.5259 18.5076C35.5292 18.2751 35.4859 18.0443 35.3985 17.8288C35.3111 17.6133 35.1814 17.4176 35.017 17.2532C34.8525 17.0888 34.6568 16.959 34.4414 16.8716C34.2259 16.7842 33.9951 16.7409 33.7626 16.7443C33.5301 16.7477 33.3007 16.7977 33.0878 16.8914C32.875 16.985 32.6832 17.1204 32.5236 17.2896C32.2133 17.6185 32.0434 18.0554 32.05 18.5076C32.0566 18.9597 32.2392 19.3915 32.5589 19.7112C32.8787 20.031 33.3104 20.2135 33.7626 20.2201C34.2147 20.2267 34.6517 20.0568 34.9806 19.7466Z" fill="white"/>
</svg>
