<svg width="52" height="52" viewBox="0 0 52 52" fill="none" xmlns="http://www.w3.org/2000/svg">
<circle cx="26" cy="26" r="25" fill="#464140" stroke="white" stroke-width="2"/>
<path d="M31.1421 20.1022C30.0404 20.1022 29.2246 20.3801 28.586 20.7311C28.4836 20.3671 28.1473 20.1006 27.7507 20.1803H22.9018C22.4224 20.1006 22.034 20.489 22.1819 20.9928V38.8678C22.034 39.3228 22.4224 39.7128 22.9018 39.6803H27.7507C28.2301 39.7128 28.6185 39.3228 28.6185 38.8434L28.6169 28.0404C28.6153 28.0355 28.5974 27.5188 28.924 27.1629C29.1856 26.8801 29.6358 26.7355 30.2581 26.7355C31.2949 26.7355 31.7564 27.1596 31.9286 28.1086V38.8434C31.758 39.3228 32.1464 39.7128 32.6257 39.6803H37.7364C38.2157 39.7128 38.6041 39.3228 38.4319 38.8434V27.7479C38.6025 22.1059 34.5839 20.1022 31.1421 20.1022ZM36.867 38.0553H33.4935V28.1086C33.4935 26.1895 32.2536 25 30.2598 25C29.132 25 28.2545 25.3315 27.65 25.9847C26.8099 26.8947 26.8749 28.0485 27.0553 28.3053V38.0553H23.7695V21.8378H26.883V22.3837C26.8817 22.5464 26.9264 22.7061 27.0118 22.8445C27.0972 22.9829 27.22 23.0945 27.3659 23.1662C27.5119 23.238 27.6751 23.2672 27.8369 23.2504C27.9987 23.2335 28.1524 23.1714 28.2805 23.0711L28.508 22.8956C29.1661 22.3772 29.847 21.8394 31.1438 21.8394C32.486 21.8394 36.8686 22.2668 36.8686 27.7495V38.0553H36.867ZM17.3053 12C15.482 12 14 13.482 14 15.3052C14 17.1285 15.482 18.6105 17.3053 18.6105C19.1285 18.6105 20.6105 17.1285 20.6105 15.3052C20.6105 13.482 19.1285 12 17.3053 12ZM17.3053 16.875C16.4408 16.875 15.7355 16.1697 15.7355 15.3052C15.7355 14.4407 16.4408 13.7355 17.3053 13.7355C18.1698 13.7355 18.875 14.4407 18.875 15.3052C18.875 16.1697 18.1698 16.875 17.3053 16.875ZM19.6258 20.1006H14.8028C14.3234 20.1006 13.935 20.489 14.0553 20.9928V38.8678C13.935 39.3228 14.3234 39.7128 14.8028 39.6803H19.6258C20.1051 39.7128 20.4935 39.3228 20.4935 38.8434V20.9684C20.4935 20.7382 20.4021 20.5175 20.2393 20.3548C20.0766 20.192 19.8559 20.1006 19.6258 20.1006ZM18.9303 38.0553H15.6705V21.8378H18.9303V38.0553Z" fill="white"/>
</svg>
