<svg width="52" height="52" viewBox="0 0 52 52" fill="none" xmlns="http://www.w3.org/2000/svg">
<circle cx="26" cy="26" r="25" fill="#464140" stroke="white" stroke-width="2"/>
<path d="M38.5328 17.5675C38.713 17.2339 38.8616 16.884 38.9764 16.5226C39.0296 16.355 39.0307 16.1752 38.9795 16.0069C38.9283 15.8386 38.8274 15.6898 38.6899 15.5802C38.5524 15.4705 38.3849 15.4051 38.2094 15.3926C38.034 15.3801 37.8589 15.4212 37.7073 15.5103C36.8746 16.0049 35.9733 16.3735 35.0326 16.6039C33.8906 15.5733 32.4075 15.0019 30.8693 15C30.0336 15.0006 29.2066 15.17 28.438 15.498C27.6693 15.826 26.9748 16.3058 26.396 16.9087C25.8173 17.5115 25.3662 18.2251 25.0699 19.0065C24.7736 19.7879 24.6381 20.6211 24.6716 21.4561C21.017 20.9961 17.6797 19.1468 15.3522 16.2919C15.263 16.1837 15.149 16.0987 15.02 16.044C14.8909 15.9893 14.7505 15.9666 14.6108 15.9777C14.471 15.9889 14.3361 16.0336 14.2173 16.1081C14.0986 16.1826 13.9996 16.2847 13.9287 16.4056C13.3957 17.3204 13.106 18.3564 13.0873 19.415C13.0685 20.4735 13.3212 21.5192 13.8214 22.4523C13.6988 22.473 13.5809 22.5159 13.4737 22.579C13.3423 22.6628 13.2341 22.7783 13.1591 22.9149C13.0842 23.0515 13.0448 23.2048 13.0447 23.3606C13.0447 25.205 13.8653 26.8983 15.1881 28.0488L15.1312 28.1056C15.0313 28.2186 14.9626 28.3556 14.9318 28.5032C14.9011 28.6508 14.9093 28.8039 14.9557 28.9474C15.2315 29.8079 15.6921 30.5977 16.3051 31.2615C16.9181 31.9253 17.6688 32.4472 18.5047 32.7905C16.788 33.6279 14.8669 33.9545 12.9699 33.7314C12.7749 33.7115 12.5789 33.7569 12.4124 33.8604C12.246 33.9639 12.1186 34.1197 12.0502 34.3034C11.9845 34.4884 11.9833 34.6902 12.0467 34.8761C12.1101 35.0619 12.2344 35.2208 12.3996 35.3271C14.9784 36.9823 17.9786 37.8616 21.0429 37.8605C31.0854 37.8605 37.0882 29.703 37.0882 21.8169L37.0866 21.5504C38.0598 20.7905 38.9052 19.8799 39.5907 18.8529C39.6945 18.6976 39.7455 18.5131 39.7363 18.3265C39.727 18.14 39.6579 17.9614 39.5392 17.8172C39.4205 17.673 39.2586 17.5709 39.0773 17.5259C38.8961 17.4809 38.7051 17.4955 38.5328 17.5675ZM35.6972 20.4194C35.5793 20.5042 35.4845 20.6172 35.4214 20.748C35.3584 20.8789 35.3292 21.0234 35.3364 21.1685C35.3462 21.383 35.3511 21.6008 35.3511 21.8153C35.3511 28.8483 29.9999 36.1234 21.0446 36.1234C19.4473 36.1241 17.8614 35.856 16.3532 35.3304C18.1595 34.9842 19.8564 34.2096 21.3013 33.0716C21.442 32.9607 21.5449 32.8091 21.5961 32.6375C21.6473 32.4658 21.6443 32.2825 21.5874 32.1127C21.5304 31.9429 21.4225 31.7948 21.2782 31.6886C21.1339 31.5825 20.9604 31.5235 20.7813 31.5198C20.0806 31.5064 19.3929 31.3285 18.7736 31.0005C18.1544 30.6725 17.6208 30.2036 17.2161 29.6315C17.6272 29.6039 18.0302 29.5356 18.4218 29.43C18.6113 29.3793 18.7781 29.2658 18.8949 29.1081C19.0116 28.9504 19.0715 28.7578 19.0647 28.5617C19.0579 28.3656 18.9849 28.1776 18.8575 28.0284C18.7301 27.8792 18.5559 27.7775 18.3633 27.74C17.572 27.579 16.8393 27.2059 16.2436 26.6607C15.648 26.1154 15.2118 25.4184 14.9817 24.6444C15.4139 24.7533 15.8576 24.8166 16.3012 24.8313C16.6831 24.8296 17.0373 24.5956 17.1559 24.2284C17.2746 23.8611 17.1348 23.4565 16.8114 23.242C16.0468 22.7326 15.4581 21.9995 15.1257 21.143C14.7932 20.2865 14.7333 19.3482 14.9541 18.4564C17.7767 21.3526 21.5882 23.0773 25.6271 23.2859C25.9131 23.2875 26.1633 23.1851 26.3372 22.9755C26.5111 22.7659 26.5777 22.488 26.5159 22.2215C26.2937 21.2644 26.3931 20.2607 26.7988 19.3657C27.2044 18.4708 27.8938 17.7345 28.7601 17.2708C29.6264 16.8072 30.6214 16.6419 31.591 16.8007C32.5607 16.9595 33.451 17.4335 34.1242 18.1493C34.2251 18.2569 34.3517 18.3371 34.4921 18.3823C34.6326 18.4275 34.7822 18.4362 34.9269 18.4076C35.1951 18.354 35.4599 18.2923 35.7216 18.2208C35.6036 18.309 35.481 18.391 35.3543 18.4661C35.1858 18.5693 35.0575 18.7269 34.9905 18.9128C34.9235 19.0987 34.9219 19.3019 34.9858 19.4889C35.0498 19.6758 35.1756 19.8355 35.3424 19.9414C35.5092 20.0473 35.7071 20.0933 35.9036 20.0716L36.1993 20.0343C36.0364 20.1684 35.869 20.2969 35.6972 20.4194Z" fill="white"/>
</svg>
