<svg width="52" height="52" viewBox="0 0 52 52" fill="none" xmlns="http://www.w3.org/2000/svg">
<circle cx="26" cy="26" r="25" fill="#464140" stroke="white" stroke-width="2"/>
<path d="M39.25 25.4365C39.25 25.3721 39.25 25.2988 39.2471 25.2139C39.2441 24.9766 39.2383 24.71 39.2324 24.4258C39.209 23.6084 39.168 22.7939 39.1035 22.0264C39.0156 20.9687 38.8867 20.0869 38.7109 19.4248C38.5254 18.7338 38.1618 18.1037 37.6565 17.5973C37.1511 17.0909 36.5216 16.726 35.8311 16.5391C35.002 16.3164 33.3789 16.1787 31.0938 16.0937C30.0068 16.0527 28.8437 16.0264 27.6807 16.0117C27.2734 16.0059 26.8955 16.0029 26.5557 16H25.6943C25.3545 16.0029 24.9766 16.0059 24.5693 16.0117C23.4062 16.0264 22.2432 16.0527 21.1562 16.0937C18.8711 16.1816 17.2451 16.3193 16.4189 16.5391C15.7281 16.7255 15.0984 17.0902 14.593 17.5967C14.0876 18.1032 13.7241 18.7336 13.5391 19.4248C13.3604 20.0869 13.2344 20.9687 13.1465 22.0264C13.082 22.7939 13.041 23.6084 13.0176 24.4258C13.0088 24.71 13.0059 24.9766 13.0029 25.2139C13.0029 25.2988 13 25.3721 13 25.4365V25.6006C13 25.665 13 25.7383 13.0029 25.8232C13.0059 26.0605 13.0117 26.3271 13.0176 26.6113C13.041 27.4287 13.082 28.2432 13.1465 29.0107C13.2344 30.0684 13.3633 30.9502 13.5391 31.6123C13.9141 33.0156 15.0156 34.123 16.4189 34.498C17.2451 34.7207 18.8711 34.8584 21.1562 34.9434C22.2432 34.9844 23.4062 35.0107 24.5693 35.0254C24.9766 35.0312 25.3545 35.0342 25.6943 35.0371H26.5557C26.8955 35.0342 27.2734 35.0312 27.6807 35.0254C28.8437 35.0107 30.0068 34.9844 31.0938 34.9434C33.3789 34.8555 35.0049 34.7178 35.8311 34.498C37.2344 34.123 38.3359 33.0186 38.7109 31.6123C38.8896 30.9502 39.0156 30.0684 39.1035 29.0107C39.168 28.2432 39.209 27.4287 39.2324 26.6113C39.2412 26.3271 39.2441 26.0605 39.2471 25.8232C39.2471 25.7383 39.25 25.665 39.25 25.6006V25.4365ZM37.1406 25.5889C37.1406 25.6504 37.1406 25.7178 37.1377 25.7969C37.1348 26.0254 37.1289 26.2773 37.123 26.5498C37.1025 27.3291 37.0615 28.1084 37 28.832C36.9209 29.7754 36.8096 30.5488 36.6719 31.0674C36.4902 31.7441 35.957 32.2803 35.2832 32.459C34.668 32.623 33.1182 32.7549 31.0117 32.834C29.9453 32.875 28.7969 32.9014 27.6514 32.916C27.25 32.9219 26.8779 32.9248 26.5439 32.9248H25.7061L24.5986 32.916C23.4531 32.9014 22.3076 32.875 21.2383 32.834C19.1318 32.752 17.5791 32.623 16.9668 32.459C16.293 32.2773 15.7598 31.7441 15.5781 31.0674C15.4404 30.5488 15.3291 29.7754 15.25 28.832C15.1885 28.1084 15.1504 27.3291 15.127 26.5498C15.1182 26.2773 15.1152 26.0225 15.1123 25.7969C15.1123 25.7178 15.1094 25.6475 15.1094 25.5889V25.4482C15.1094 25.3867 15.1094 25.3193 15.1123 25.2402C15.1152 25.0117 15.1211 24.7598 15.127 24.4873C15.1475 23.708 15.1885 22.9287 15.25 22.2051C15.3291 21.2617 15.4404 20.4883 15.5781 19.9697C15.7598 19.293 16.293 18.7568 16.9668 18.5781C17.582 18.4141 19.1318 18.2822 21.2383 18.2031C22.3047 18.1621 23.4531 18.1357 24.5986 18.1211C25 18.1152 25.3721 18.1123 25.7061 18.1123H26.5439L27.6514 18.1211C28.7969 18.1357 29.9424 18.1621 31.0117 18.2031C33.1182 18.2852 34.6709 18.4141 35.2832 18.5781C35.957 18.7598 36.4902 19.293 36.6719 19.9697C36.8096 20.4883 36.9209 21.2617 37 22.2051C37.0615 22.9287 37.0996 23.708 37.123 24.4873C37.1318 24.7598 37.1348 25.0146 37.1377 25.2402C37.1377 25.3193 37.1406 25.3896 37.1406 25.4482V25.5889ZM23.5176 29.4443L30.3145 25.4893L23.5176 21.5928V29.4443Z" fill="white"/>
</svg>
