<svg width="46" height="51" viewBox="0 0 46 51" fill="none" xmlns="http://www.w3.org/2000/svg">
<path d="M29.25 1.00002C30.7073 0.999841 32.1379 1.39164 33.3918 2.13435C34.6456 2.87706 35.6767 3.94334 36.3768 5.22147C37.077 6.49959 37.4205 7.94251 37.3713 9.39901C37.3222 10.8555 36.8822 12.272 36.0975 13.5H42.375C44.1 13.5 45.5 14.9 45.5 16.625V25.375C45.5001 26.0954 45.2514 26.7938 44.7958 27.3518C44.3402 27.9099 43.7059 28.2934 43 28.4375V42.875C43.0001 44.9504 42.2061 46.9471 40.7808 48.4556C39.3555 49.9641 37.407 50.87 35.335 50.9875L34.875 51H11.125C9.04966 51.0001 7.05293 50.2061 5.54442 48.7808C4.03592 47.3555 3.13 45.407 3.0125 43.335L3 42.875V28.4375C1.575 28.1475 0.5 26.8875 0.5 25.375V16.625C0.5 14.9 1.9 13.5 3.625 13.5H9.9025C8.78105 11.7577 8.36766 9.65266 8.74688 7.61559C9.12611 5.57852 10.2693 3.7633 11.9426 2.54121C13.6159 1.31912 15.6929 0.782509 17.7488 1.04113C19.8046 1.29975 21.684 2.33406 23.0025 3.93252C23.7636 3.01378 24.7183 2.27453 25.7983 1.76759C26.8783 1.26065 28.0569 0.998549 29.25 1.00002ZM21.125 28.4975H6.75V42.875C6.75004 43.973 7.16293 45.0308 7.9067 45.8385C8.65047 46.6462 9.67075 47.1447 10.765 47.235L11.125 47.25H21.125V28.4975ZM39.25 28.4975H24.875V47.25H34.875C35.9734 47.2499 37.0315 46.8367 37.8393 46.0924C38.647 45.3481 39.1452 44.3272 39.235 43.2325L39.25 42.875V28.4975ZM21.125 17.25H4.25V24.75L21.125 24.7475V17.25ZM41.75 24.75V17.25H24.875V24.7475L41.75 24.75ZM29.25 4.75001C28.0897 4.75002 26.9769 5.21095 26.1564 6.03142C25.3359 6.85189 24.875 7.96469 24.875 9.12502V13.4975H29.31L29.61 13.485C30.7349 13.3916 31.7802 12.8671 32.5274 12.021C33.2746 11.1748 33.6658 10.0727 33.6193 8.94486C33.5728 7.81703 33.0922 6.7508 32.278 5.96905C31.4637 5.1873 30.3788 4.75052 29.25 4.75001ZM16.75 4.75001C15.6212 4.75052 14.5363 5.1873 13.722 5.96905C12.9078 6.7508 12.4272 7.81703 12.3807 8.94486C12.3342 10.0727 12.7254 11.1748 13.4726 12.021C14.2198 12.8671 15.2651 13.3916 16.39 13.485L16.69 13.4975H21.125V9.12502L21.11 8.76501C21.0197 7.67076 20.5212 6.65049 19.7135 5.90671C18.9058 5.16294 17.848 4.75006 16.75 4.75001Z" fill="#080200"/>
</svg>
