<svg width="60" height="60" viewBox="0 0 60 60" fill="none" xmlns="http://www.w3.org/2000/svg">
<path d="M20.3571 10.7143C19.0908 10.7143 17.8369 10.9637 16.667 11.4483C15.497 11.9329 14.434 12.6432 13.5386 13.5386C12.6432 14.434 11.9329 15.4971 11.4483 16.667C10.9637 17.8369 10.7143 19.0908 10.7143 20.3572C10.7143 21.6235 10.9637 22.8774 11.4483 24.0473C11.9329 25.2172 12.6432 26.2803 13.5386 27.1757C14.434 28.0711 15.497 28.7814 16.667 29.266C17.8369 29.7506 19.0908 30 20.3571 30C22.9146 30 25.3673 28.9841 27.1757 27.1757C28.9841 25.3673 30 22.9146 30 20.3572C30 17.7997 28.9841 15.347 27.1757 13.5386C25.3673 11.7302 22.9146 10.7143 20.3571 10.7143ZM13.9286 20.3572C13.9286 19.5129 14.0948 18.677 14.4179 17.897C14.741 17.1171 15.2145 16.4084 15.8114 15.8115C16.4084 15.2145 17.1171 14.741 17.897 14.4179C18.677 14.0949 19.5129 13.9286 20.3571 13.9286C21.2013 13.9286 22.0373 14.0949 22.8172 14.4179C23.5972 14.741 24.3059 15.2145 24.9028 15.8115C25.4998 16.4084 25.9733 17.1171 26.2964 17.897C26.6194 18.677 26.7857 19.5129 26.7857 20.3572C26.7857 22.0621 26.1084 23.6972 24.9028 24.9028C23.6972 26.1084 22.0621 26.7857 20.3571 26.7857C18.6522 26.7857 17.017 26.1084 15.8114 24.9028C14.6059 23.6972 13.9286 22.0621 13.9286 20.3572ZM42.8571 15C40.868 15 38.9604 15.7902 37.5538 17.1967C36.1473 18.6032 35.3571 20.5109 35.3571 22.5C35.3571 24.4891 36.1473 26.3968 37.5538 27.8033C38.9604 29.2098 40.868 30 42.8571 30C44.8463 30 46.7539 29.2098 48.1604 27.8033C49.567 26.3968 50.3571 24.4891 50.3571 22.5C50.3571 20.5109 49.567 18.6032 48.1604 17.1967C46.7539 15.7902 44.8463 15 42.8571 15ZM38.5714 22.5C38.5714 21.3634 39.023 20.2733 39.8267 19.4696C40.6304 18.6658 41.7205 18.2143 42.8571 18.2143C43.9938 18.2143 45.0839 18.6658 45.8876 19.4696C46.6913 20.2733 47.1429 21.3634 47.1429 22.5C47.1429 23.6367 46.6913 24.7267 45.8876 25.5305C45.0839 26.3342 43.9938 26.7857 42.8571 26.7857C41.7205 26.7857 40.6304 26.3342 39.8267 25.5305C39.023 24.7267 38.5714 23.6367 38.5714 22.5ZM4.28571 39.1072C4.28571 37.8284 4.79368 36.6021 5.69787 35.6979C6.60206 34.7937 7.82841 34.2857 9.10713 34.2857H31.6071C32.8859 34.2857 34.1122 34.7937 35.0164 35.6979C35.9206 36.6021 36.4286 37.8284 36.4286 39.1072V40.245C36.4258 40.4184 36.4137 40.5915 36.3921 40.7636C36.3438 41.2056 36.265 41.6438 36.1564 42.075C35.8021 43.4822 35.1705 44.8044 34.2986 45.9643C32.1257 48.8636 27.9814 51.4286 20.3571 51.4286C12.7328 51.4286 8.58856 48.8636 6.41571 45.9643C5.54454 44.8042 4.91365 43.482 4.55999 42.075C4.42008 41.5148 4.33044 40.9433 4.29213 40.3672C4.28946 40.3265 4.28732 40.2858 4.28571 40.245V39.1072ZM7.49999 40.1679V40.2064L7.51928 40.4207C7.54071 40.6222 7.58356 40.9243 7.67785 41.295C7.92769 42.2862 8.37201 43.2178 8.98499 44.0357C10.4293 45.9579 13.5171 48.2143 20.3571 48.2143C27.1971 48.2143 30.285 45.9579 31.7271 44.0357C32.4771 43.0372 32.85 42.0386 33.0343 41.295C33.1243 40.9378 33.1838 40.5737 33.2121 40.2064L33.2143 40.1679V39.1072C33.2143 38.6809 33.045 38.2721 32.7436 37.9707C32.4422 37.6693 32.0334 37.5 31.6071 37.5H9.10713C8.68089 37.5 8.27211 37.6693 7.97071 37.9707C7.66931 38.2721 7.49999 38.6809 7.49999 39.1072V40.1679ZM36.6429 46.3286C38.2993 46.8364 40.3436 47.1429 42.8528 47.1429C48.7886 47.1429 52.1057 45.4372 53.9079 43.38C54.6284 42.566 55.1623 41.6042 55.4721 40.5622C55.5945 40.1414 55.6728 39.7091 55.7057 39.2722L55.71 39.1714V39.1072C55.71 37.8284 55.202 36.6021 54.2978 35.6979C53.3936 34.7937 52.1673 34.2857 50.8886 34.2857H36.63C37.4743 35.1664 38.0914 36.27 38.3829 37.5H50.8907C51.3133 37.5 51.7188 37.6664 52.0196 37.9631C52.3204 38.2599 52.4922 38.6632 52.4979 39.0857C52.4789 39.2802 52.4415 39.4725 52.3864 39.66C52.2072 40.2536 51.9 40.8008 51.4864 41.2629C50.4771 42.42 48.1714 43.9286 42.8528 43.9286C40.8364 43.9286 39.2528 43.7122 38.0079 43.3779C37.6776 44.4145 37.219 45.4057 36.6429 46.3286Z" fill="#080200"/>
</svg>
