<svg width="51" height="61" viewBox="0 0 51 61" fill="none" xmlns="http://www.w3.org/2000/svg">
<path d="M18.3126 2.07087L17.2474 0.378109L18.3126 2.07088L18.3125 2.07094L18.3121 2.07119L18.3105 2.07218L18.3042 2.07615L18.2792 2.09188L18.1814 2.15347L17.8081 2.38848C17.4857 2.59158 17.023 2.88309 16.4623 3.23667C15.3408 3.94387 13.8275 4.89916 12.2596 5.89178L12.2587 5.89234C9.15625 7.85416 5.59511 10.087 4.73171 10.5661L4.64675 10.6133L4.58277 10.641C2.58148 11.9233 2.10012 13.9778 2.00924 15.3314L2.00944 15.3378C2.01024 15.3649 2.01128 15.406 2.01128 15.4543V15.4956L2.00957 15.5369C1.99873 15.7992 1.99888 16.0113 2.00144 16.1525C2.00271 16.2229 2.00457 16.2751 2.0059 16.3064L2.0073 16.3366L2.00736 16.3372C2.00741 16.3381 2.00738 16.3378 2.00741 16.3383C2.00745 16.3391 2.00753 16.3404 2.00752 16.3401L2.01128 16.3985V16.4627V46.6081C2.01128 47.8714 2.69782 48.9216 4.16176 49.757C5.6662 50.6155 7.78931 51.095 9.96436 51.095C11.3109 51.095 12.6469 50.8862 13.782 50.5289C13.9034 50.4512 14.006 50.3516 14.0768 50.2498C14.1583 50.1326 14.1647 50.0638 14.1651 50.0628C14.1651 50.0628 14.1651 50.0628 14.1651 50.0629V25.8343C14.1651 23.0719 14.4583 20.7768 15.3622 18.8389C16.2967 16.8354 17.7822 15.4239 19.7515 14.2424L19.8174 14.2028L19.8861 14.1685C19.886 14.1685 19.8867 14.1681 19.8882 14.1672C19.9078 14.1557 20.065 14.0634 20.4198 13.8354C20.7591 13.6174 21.2023 13.3256 21.7173 12.9824C22.7457 12.297 24.0353 11.4232 25.301 10.5605C26.5656 9.6985 27.802 8.85054 28.7225 8.21787C29.1827 7.9016 29.5637 7.63927 29.8297 7.45606L30.0375 7.31277C30.045 7.30218 30.0529 7.29077 30.0611 7.27855C30.1124 7.20189 30.1651 7.10932 30.2111 7.01072C30.2575 6.91128 30.2886 6.82391 30.3062 6.75837C30.3139 6.72972 30.3175 6.71116 30.319 6.70226V6.50734C30.319 6.3921 30.2936 6.33046 30.2698 6.28915C30.2414 6.24011 30.1814 6.16444 30.0557 6.08067C30.0518 6.07802 30.037 6.07042 30.0113 6.07042C30.0002 6.07042 29.9911 6.07184 29.984 6.07367C29.9346 6.11016 29.8759 6.15227 29.8136 6.19635C29.6867 6.2862 29.514 6.40628 29.3051 6.55019C28.8856 6.83916 28.2998 7.23816 27.5981 7.71278C26.1937 8.66263 24.3135 9.92292 22.347 11.2263C18.5052 13.7727 14.1916 16.5791 12.5496 17.4734C10.908 18.4769 9.25306 19.1466 7.82182 19.4261C7.10533 19.5659 6.3567 19.6255 5.65455 19.5232C5.0077 19.4291 4.14622 19.155 3.53179 18.4029C3.11888 17.9294 2.93373 17.3549 2.84969 17.0599C2.72889 16.6357 2.65081 16.1582 2.62885 15.6885L2.62667 15.6418V15.595V15.4496V15.4423H2.62668C2.63018 14.4904 2.89621 12.4579 5.02061 11.1503L5.05774 11.1274L5.09584 11.1062C6.15438 10.5167 8.62164 8.95354 11.3088 7.25108C11.7497 6.97175 12.1966 6.68867 12.644 6.40553L18.3126 2.07087ZM18.3126 2.07087L18.3333 2.05786M18.3126 2.07087L18.3333 2.05786M18.3333 2.05786L18.3536 2.04435M18.3333 2.05786L18.3536 2.04435M18.3536 2.04435C18.385 2.0235 18.4199 2.00863 18.4566 2.00043C18.4929 1.99851 18.5292 2.00302 18.564 2.0138C18.6059 2.02679 18.6445 2.04858 18.6773 2.07772L20.0026 0.586784L18.6773 2.07772C18.7101 2.10686 18.7363 2.14267 18.7541 2.18274C18.7719 2.22283 18.7809 2.26625 18.7806 2.31011L18.7805 2.31796V2.3258V5.78734V5.86429L18.7864 5.94102C18.7924 6.01813 18.7691 6.09464 18.7211 6.15534C18.6732 6.21604 18.6042 6.25646 18.5278 6.26856C18.4514 6.28067 18.3733 6.26356 18.3089 6.22065L17.1993 7.88461M18.3536 2.04435L17.1993 7.88461M17.1993 7.88461L18.3089 6.22065C18.2446 6.17775 18.1988 6.11219 18.1806 6.03702L17.5225 3.31704L15.1622 4.82048C14.6198 5.16595 14.3378 5.34196 14.0107 5.5461C13.6921 5.74497 13.3307 5.97052 12.6442 6.40542C12.6445 6.40526 12.6447 6.4051 12.645 6.40494L17.1993 7.88461ZM35.6351 8.52888C36.7516 10.1882 36.7515 10.1883 36.7515 10.1883L36.7511 10.1886L36.7495 10.1897L36.7432 10.1939L36.7182 10.2107L36.6206 10.2764L36.2484 10.5268L34.9048 11.4306C33.7842 12.1844 32.2691 13.2034 30.691 14.2643C27.712 16.2671 24.5023 18.4236 23.3043 19.2238L23.2788 19.2513L23.1344 19.3596C21.7694 20.3834 21.041 21.5395 20.7364 22.4808C20.5555 23.0452 20.4665 23.6351 20.4727 24.2278L20.4728 24.2383V24.2489V24.9712V25.0177L20.4707 25.0642C20.4702 25.0737 20.4702 25.0833 20.4707 25.0928L20.4728 25.1393V25.1858V53.095C20.4728 54.4121 21.2034 55.5845 22.6561 56.5186C24.1293 57.4659 26.1583 58.0181 28.1374 58.0181C29.9603 58.0181 31.4076 57.6204 32.3634 56.9832L32.4133 56.95L32.4651 56.9198C33.7149 56.1907 37.626 53.2824 41.3774 50.429C43.2184 49.0287 44.9738 47.6781 46.2694 46.6773C46.9171 46.1771 47.4495 45.7644 47.8199 45.477C48.0051 45.3333 48.1497 45.2209 48.2479 45.1445L48.3598 45.0575L48.3882 45.0353L48.3953 45.0298L48.3971 45.0284L48.3975 45.0281C48.3976 45.0281 48.3976 45.028 48.6244 45.3191L48.3976 45.028L48.4558 44.9826L48.5173 44.9417C48.6626 44.8448 48.7433 44.7579 48.7805 44.7077V14.8012C48.7805 14.6404 48.7648 14.5412 48.7516 14.4866C48.7452 14.4599 48.7393 14.4436 48.736 14.4353C48.7343 14.431 48.733 14.4283 48.7322 14.4268L48.731 14.4244L48.7307 14.4241L48.7291 14.4221C48.7272 14.4198 48.7213 14.4132 48.7087 14.4024C48.6832 14.3805 48.6261 14.3377 48.5153 14.2823L48.4268 14.2381C48.4147 14.2388 48.4004 14.24 48.384 14.2419C48.3164 14.2499 48.2375 14.2682 48.159 14.2968C48.1008 14.3179 48.0555 14.34 48.0247 14.3575C46.9218 15.1859 45.2914 16.4408 43.4722 17.841C42.2376 18.7912 40.9161 19.8083 39.6135 20.8045C36.4332 23.2367 33.2542 25.6315 31.9772 26.3977L31.959 26.4087L31.9405 26.4192C30.1714 27.4301 28.3699 28.1129 26.76 28.3613C25.2797 28.5896 23.383 28.5283 22.1055 27.2508C21.5936 26.7388 21.2961 26.1579 21.1692 25.5189C21.082 25.0796 21.0856 24.6078 21.0877 24.3429C21.088 24.3077 21.0882 24.2762 21.0882 24.2489V24.214L21.0894 24.1791C21.1061 23.7009 21.1608 23.1503 21.3298 22.6254L35.6351 8.52888ZM35.6351 8.52888L36.7516 10.1882L36.7963 10.1582L36.8393 10.1258C36.8683 10.1039 36.9009 10.0874 36.9355 10.0769C36.9659 10.077 36.9963 10.0817 37.0255 10.0907C37.0674 10.1037 37.1061 10.1255 37.1388 10.1546L38.4247 8.70805L37.1388 10.1546C37.1716 10.1838 37.1978 10.2196 37.2156 10.2597C37.2334 10.2997 37.2425 10.3432 37.2421 10.387L37.2421 10.3949V10.4027V13.855C37.2409 13.9258 37.2153 13.994 37.1696 14.0482C37.1231 14.1032 37.0589 14.1402 36.9881 14.1528C36.9172 14.1653 36.8442 14.1526 36.7817 14.1169C36.7192 14.0812 36.6712 14.0247 36.6461 13.9572L35.7559 11.569L33.6479 13.0016C32.8192 13.5648 31.8826 14.202 30.9172 14.8587C27.9951 16.8465 24.8101 19.0132 23.5626 19.8466L23.5109 19.8811L23.4615 19.9188C23.4097 19.9583 23.3356 20.0178 23.254 20.0975C22.1344 20.9945 21.6038 21.774 21.3299 22.625L35.6351 8.52888ZM2.00808 15.2938C2.00807 15.2935 2.00808 15.2937 2.0081 15.2943L2.00808 15.2938ZM48.1651 24.9712V20.8915L44.9402 23.3902L33.4017 32.3302L32.6267 32.9307V33.9112V38.5266V42.6062L35.8516 40.1076L47.3901 31.1676L48.1651 30.567V29.5866V24.9712Z" stroke="#080200" stroke-width="4"/>
</svg>
