<svg width="64" height="64" viewBox="0 0 64 64" fill="none" xmlns="http://www.w3.org/2000/svg">
<path d="M52.625 12.313C45.182 9.476 37.063 5.796 25.438 2H2C18.22 17.979 8.278 46.019 24.5 62C36.433 54.17 50.065 46.393 62 38.563C54.826 31.495 54.222 21.347 52.625 12.313ZM24.775 59.581C18.016 52.139 16.6 42.214 15.105 31.733C13.71 21.96 12.275 11.894 6.147 3.875H25.042C26.358 4.669 28.927 6.36 29.69 7.894C24.712 8.701 19.153 9.657 14.225 10.452C14.618 11.214 14.976 11.99 15.3 12.777C20.172 11.887 25.671 10.836 30.593 9.933C31.1009 11.2431 31.5238 12.5845 31.859 13.949C27.023 15.01 21.532 16.071 16.765 17.132C16.987 17.956 17.186 18.787 17.364 19.626C22.094 18.464 27.548 17.302 32.351 16.14C32.452 16.639 32.548 17.139 32.636 17.642C39.084 15.942 44.232 13.751 50.96 13.702C51.115 14.619 51.261 15.545 51.414 16.511C52.561 23.759 53.85 31.892 59.119 38.199C53.699 41.704 47.904 45.241 42.281 48.674C36.436 52.244 30.404 55.926 24.775 59.581Z" fill="#080200"/>
<path d="M18.159 24.218C18.28 25.077 18.386 25.94 18.486 26.807L48.086 17.586C48.0132 16.9476 47.9319 16.3102 47.842 15.674C37.947 18.521 28.053 21.371 18.159 24.218ZM22.729 50.116C23.06 50.902 23.426 51.677 23.826 52.436C28.528 49.783 33.228 47.129 37.927 44.476C37.5808 43.818 37.2632 43.1454 36.975 42.46C32.227 45.014 27.479 47.564 22.729 50.116Z" fill="#080200"/>
</svg>
