<svg width="54" height="54" viewBox="0 0 54 54" fill="none" xmlns="http://www.w3.org/2000/svg">
<path d="M36.7264 3.36427L36.7258 3.36458C34.7376 4.51161 33.3317 6.26493 32.517 8.29889L40.5224 22.1684C42.687 22.4801 44.9115 22.1382 46.9076 20.9894C49.2451 19.6394 50.9507 17.4162 51.6493 14.8089C52.3479 12.2014 51.9824 9.42331 50.633 7.08541L36.7264 3.36427ZM36.7264 3.36427C39.0642 2.01455 41.8423 1.64833 44.45 2.3461C47.0573 3.04376 49.2809 4.74795 50.6323 7.0842L36.7264 3.36427ZM27.6893 13.735L33.3996 23.63L23.1211 28.6114L21.9934 29.158V30.4112V51.9732H19.9934V33.3212V30.1303L17.1216 31.5212L5.61579 37.0939L2.13797 31.0721L27.6893 13.735Z" stroke="#080200" stroke-width="4"/>
</svg>
