<svg width="53" height="60" viewBox="0 0 53 60" fill="none" xmlns="http://www.w3.org/2000/svg">
<g clip-path="url(#clip0_1_291)">
<path d="M33.6258 8.15046C31.9637 7.55502 30.2387 7.25117 28.4988 7.25117C20.0886 7.25117 13.25 14.0898 13.25 22.5C13.25 30.9087 20.0882 37.7488 28.4977 37.7477L33.6258 8.15046ZM33.6258 8.15046C33.8618 8.1876 34.092 8.25788 34.3095 8.35978C34.6467 8.51774 34.9451 8.74781 35.1837 9.03375C35.4222 9.3197 35.5951 9.65453 35.6901 10.0146C35.7851 10.3746 35.7999 10.7511 35.7334 11.1176C35.6669 11.484 35.5208 11.8313 35.3054 12.135C35.09 12.4388 34.8106 12.6915 34.4868 12.8755C34.4868 12.8755 34.4868 12.8755 34.4867 12.8755L33.6258 8.15046ZM49.659 53.2182L49.7629 53.7378L50.1376 54.1124C50.6968 54.6717 50.75 55.0028 50.75 55.125V57C50.75 57.4373 50.5881 57.7224 50.38 57.9131C50.1493 58.1246 49.8246 58.25 49.5 58.25H11.25C5.8415 58.25 1.75 54.1585 1.75 48.75V11.25C1.75 5.8415 5.8415 1.75 11.25 1.75H49.5C50.0866 1.75 50.3505 1.91911 50.4657 2.03431C50.5809 2.14952 50.75 2.41339 50.75 3V42C50.75 42.3794 50.6853 42.5601 50.6535 42.6236C50.6397 42.6513 50.6308 42.66 50.6298 42.6609L50.6297 42.661L50.6297 42.6611C50.6287 42.662 50.6201 42.6709 50.5924 42.6848L49.8725 43.0447L49.6772 43.8256C49.4296 44.8161 49.3438 46.7148 49.3438 48.4219C49.3438 50.1633 49.4346 52.0962 49.659 53.2182ZM33.715 16.3108L33.7138 16.3131L32.8098 18.143L30.7914 18.4361L30.791 18.4362C29.047 18.69 28.3396 20.8353 29.6095 22.0728C29.6095 22.0729 29.6096 22.0729 29.6097 22.073L31.0704 23.4966L30.7256 25.5064L30.7253 25.508C30.4875 26.9021 31.6006 28 32.8266 28C33.1677 28 33.5054 27.9176 33.8121 27.7581L33.8187 27.7546L35.625 26.8054L37.4312 27.7546L37.4379 27.7581C37.7446 27.9176 38.0823 28 38.4234 28C39.6494 28 40.7625 26.9021 40.5247 25.508L40.5244 25.5064L40.1796 23.4966L41.6405 22.0728L41.6436 22.0699C42.9043 20.8353 42.2056 18.6913 40.46 18.4363L40.4585 18.4361L38.4393 18.143L37.5364 16.3137L37.535 16.3108C37.1476 15.5295 36.3756 15.125 35.625 15.125C34.8744 15.125 34.1024 15.5295 33.715 16.3108ZM32.6414 13.1429C32.6503 13.1435 32.6594 13.144 32.6686 13.1446L28.4979 37.7477C30.2995 37.7476 32.0843 37.4212 33.8007 36.784C34.7795 36.4375 35.4988 35.5031 35.4988 34.3852C35.4988 33.0345 34.4208 31.8406 32.952 31.8406C32.9037 31.8406 32.8607 31.8424 32.8377 31.8434C32.8103 31.8446 32.7829 31.8461 32.7592 31.8474C32.7365 31.8488 32.7115 31.8503 32.6868 31.8519C32.6616 31.8535 32.6368 31.8551 32.6152 31.8565C32.602 31.8573 32.5895 31.8581 32.5774 31.8589C32.546 31.8608 32.5184 31.8624 32.4944 31.8637C32.4549 31.8657 32.4513 31.8652 32.468 31.8652C27.3045 31.8652 23.1016 27.6614 23.1016 22.4988C23.1016 17.338 27.3 13.1368 32.4599 13.1324C32.463 13.1325 32.4738 13.1329 32.4943 13.134C32.5271 13.1357 32.5668 13.1381 32.6142 13.1411L32.6414 13.1429ZM44.625 54.25H46.375V52.5V45V43.25H44.625H11.25C8.52418 43.25 5.75 45.4217 5.75 48.75C5.75 50.2727 6.2652 51.6776 7.29381 52.7062C8.32243 53.7348 9.72732 54.25 11.25 54.25H44.625Z" stroke="#080200" stroke-width="3.5"/>
</g>
<defs>
<clipPath id="clip0_1_291">
<rect width="52.5" height="60" fill="white"/>
</clipPath>
</defs>
</svg>
