<svg width="53" height="60" viewBox="0 0 53 60" fill="none" xmlns="http://www.w3.org/2000/svg">
<path d="M28.8872 29.7615L26.9523 27.0999L25.4807 30.0431L20.2072 40.5899L19.4554 42.0936L20.8074 43.0928L34.4108 53.146C34.4113 53.1463 34.4117 53.1466 34.4121 53.1469C35.3467 53.8403 35.729 55.0491 35.366 56.1518C35.0028 57.2548 33.9749 58 32.8125 58H8.4375C6.95223 58 5.75 56.7978 5.75 55.3125C5.75 53.8272 6.95223 52.625 8.4375 52.625H18.5859H24.6593L19.7743 49.0163L13.5412 44.4118C10.2338 41.9644 9.21281 37.4871 11.1226 33.8472L16.8159 23.0112C16.8161 23.0107 16.8164 23.0101 16.8167 23.0096C18.1588 20.4667 20.7943 18.875 23.6719 18.875C26.1525 18.875 28.4759 20.0594 29.9128 22.0524L29.9128 22.0524L29.9181 22.0597L32.9884 26.2784L34.2343 27.9904L35.8726 26.649L42.3412 21.3522C42.3412 21.3522 42.3413 21.3521 42.3413 21.3521C43.4914 20.4106 45.1842 20.5795 46.1244 21.7279C47.0658 22.8778 46.8971 24.5704 45.7491 25.5107C45.749 25.5108 45.7488 25.5109 45.7487 25.5111L35.4366 33.9482L35.4317 33.9522C34.8684 34.4162 34.1336 34.6267 33.3954 34.5319C32.665 34.4381 32.0084 34.051 31.5695 33.4511C31.5691 33.4505 31.5687 33.4499 31.5682 33.4493L28.8872 29.7615ZM33.75 2C36.7822 2 39.25 4.46785 39.25 7.5C39.25 10.5321 36.7822 13 33.75 13C30.7179 13 28.25 10.5321 28.25 7.5C28.25 4.46785 30.7179 2 33.75 2Z" stroke="#080200" stroke-width="4"/>
</svg>
