<svg width="60" height="60" viewBox="0 0 60 60" fill="none" xmlns="http://www.w3.org/2000/svg">
<g clip-path="url(#clip0_1_276)">
<path fill-rule="evenodd" clip-rule="evenodd" d="M30 10.305L27.3112 7.54125C21 1.05375 9.42747 3.29251 5.24997 11.4488C3.44247 14.9813 2.92497 19.9613 5.65497 26.25H1.61247C-6.36753 4.88626 17.2312 -6.8625 29.34 4.28626C29.565 4.49251 29.7862 4.70626 30 4.92751C30.2116 4.70646 30.4317 4.49379 30.66 4.29001C42.7725 -6.86249 66.3675 4.88626 58.3875 26.25H54.345C57.075 19.9613 56.5575 14.9813 54.75 11.4488C50.5725 3.29251 39 1.05 32.6887 7.53751L30 10.305ZM8.29497 37.5H13.2262C17.2237 41.9363 22.6875 46.7175 30 51.7313C37.3087 46.7175 42.7762 41.9363 46.7737 37.5H51.705C46.9612 43.3725 39.93 49.6875 30 56.25C20.07 49.6875 13.0387 43.3725 8.29497 37.5ZM39.24 12.4275C39.0945 12.0645 38.8391 11.756 38.5096 11.5453C38.1801 11.3346 37.793 11.2322 37.4024 11.2524C37.0118 11.2727 36.6373 11.4146 36.3314 11.6582C36.0255 11.9019 35.8034 12.2351 35.6962 12.6113L29.7037 33.585L24.24 19.9275C24.1127 19.6107 23.9014 19.3346 23.6287 19.1291C23.3561 18.9236 23.0325 18.7964 22.6929 18.7613C22.3533 18.7262 22.0106 18.7844 21.7016 18.9298C21.3927 19.0752 21.1294 19.3022 20.94 19.5863L13.995 30H1.87497C1.37769 30 0.900777 30.1975 0.549146 30.5492C0.197515 30.9008 -2.8685e-05 31.3777 -2.8685e-05 31.875C-2.8685e-05 32.3723 0.197515 32.8492 0.549146 33.2008C0.900777 33.5525 1.37769 33.75 1.87497 33.75H15C15.3088 33.7498 15.6127 33.6734 15.8849 33.5275C16.157 33.3817 16.3889 33.1708 16.56 32.9138L22.0837 24.63L28.26 40.0725C28.4054 40.4356 28.6608 40.744 28.9903 40.9547C29.3198 41.1655 29.707 41.2678 30.0975 41.2476C30.4881 41.2273 30.8626 41.0855 31.1686 40.8418C31.4745 40.5981 31.6966 40.2649 31.8037 39.8888L37.7962 18.915L43.26 32.5725C43.3993 32.9201 43.6394 33.218 43.9496 33.4279C44.2597 33.6377 44.6255 33.7499 45 33.75H58.125C58.6223 33.75 59.0992 33.5525 59.4508 33.2008C59.8024 32.8492 60 32.3723 60 31.875C60 31.3777 59.8024 30.9008 59.4508 30.5492C59.0992 30.1975 58.6223 30 58.125 30H46.2675L39.24 12.4275Z" fill="#080200"/>
</g>
<defs>
<clipPath id="clip0_1_276">
<rect width="60" height="60" fill="white"/>
</clipPath>
</defs>
</svg>
